<svg width="18" height="19" viewBox="0 0 18 19" fill="none" xmlns="http://www.w3.org/2000/svg">
<mask id="mask0_6479_10407" style="mask-type:alpha" maskUnits="userSpaceOnUse" x="0" y="0" width="18" height="19">
<rect y="0.5" width="18" height="18" fill="#D9D9D9"/>
</mask>
<g mask="url(#mask0_6479_10407)">
<path d="M8.21251 14.3259L5.9222 12.0356L6.60433 11.3534L8.21251 12.9616L11.3957 9.75969L12.0778 10.4418L8.21251 14.3259ZM4.28082 16.325C3.9432 16.325 3.65782 16.2062 3.4247 15.9687C3.19157 15.7312 3.07501 15.4481 3.07501 15.1192V5.68081C3.07501 5.35194 3.19157 5.06875 3.4247 4.83125C3.65782 4.59375 3.9432 4.475 4.28082 4.475H5.9192V2.58856H6.92307V4.475H11.1058V2.58856H12.0808V4.475H13.7192C14.0568 4.475 14.3422 4.59375 14.5753 4.83125C14.8084 5.06875 14.925 5.35194 14.925 5.68081V15.1192C14.925 15.4481 14.8084 15.7312 14.5753 15.9687C14.3422 16.2062 14.0568 16.325 13.7192 16.325H4.28082ZM4.28082 15.35H13.7192C13.777 15.35 13.8298 15.3259 13.8778 15.2778C13.926 15.2298 13.95 15.1769 13.95 15.1192V8.83081H4.05001V15.1192C4.05001 15.1769 4.07407 15.2298 4.1222 15.2778C4.1702 15.3259 4.22307 15.35 4.28082 15.35ZM4.05001 7.85581H13.95V5.68081C13.95 5.62306 13.926 5.57019 13.8778 5.52219C13.8298 5.47406 13.777 5.45 13.7192 5.45H4.28082C4.22307 5.45 4.1702 5.47406 4.1222 5.52219C4.07407 5.57019 4.05001 5.62306 4.05001 5.68081V7.85581Z" fill="white"/>
</g>
</svg>
