<svg width="12" height="15" viewBox="0 0 12 15" fill="none" xmlns="http://www.w3.org/2000/svg">
<path d="M4.48125 12.0966L3.78469 11.4L5.30344 9.88125L3.78469 8.3625L4.48125 7.66593L6 9.18468L7.51875 7.66593L8.21531 8.3625L6.69656 9.88125L8.21531 11.4L7.51875 12.0966L6 10.5778L4.48125 12.0966ZM1.28081 14.325C0.943188 14.325 0.657813 14.2062 0.424688 13.9687C0.191563 13.7312 0.0750008 13.4481 0.0750008 13.1192V3.68081C0.0750008 3.35193 0.191563 3.06875 0.424688 2.83125C0.657813 2.59375 0.943188 2.475 1.28081 2.475H2.91919V0.588558H3.92306V2.475H8.10581V0.588558H9.08081V2.475H10.7192C11.0568 2.475 11.3422 2.59375 11.5753 2.83125C11.8084 3.06875 11.925 3.35193 11.925 3.68081V13.1192C11.925 13.4481 11.8084 13.7312 11.5753 13.9687C11.3422 14.2062 11.0568 14.325 10.7192 14.325H1.28081ZM1.28081 13.35H10.7192C10.7769 13.35 10.8298 13.3259 10.8778 13.2778C10.9259 13.2298 10.95 13.1769 10.95 13.1192V6.83081H1.05V13.1192C1.05 13.1769 1.07406 13.2298 1.12219 13.2778C1.17019 13.3259 1.22306 13.35 1.28081 13.35ZM1.05 5.85581H10.95V3.68081C10.95 3.62306 10.9259 3.57018 10.8778 3.52218C10.8298 3.47406 10.7769 3.45 10.7192 3.45H1.28081C1.22306 3.45 1.17019 3.47406 1.12219 3.52218C1.07406 3.57018 1.05 3.62306 1.05 3.68081V5.85581Z" fill="#A5A5A5"/>
</svg>
