<svg width="48" height="48" viewBox="0 0 48 48" fill="none" xmlns="http://www.w3.org/2000/svg">
<g filter="url(#filter0_d_2759_56572)">
<circle cx="23" cy="23" r="20" fill="#FFEB00"/>
</g>
<g clip-path="url(#clip0_2759_56572)">
<path fill-rule="evenodd" clip-rule="evenodd" d="M32.7083 30.881H12.2917C8.26433 30.881 5 27.5498 5 23.4405C5 19.3312 8.26457 16 12.2917 16H32.7083C36.7357 16 40 19.3312 40 23.4405C40 27.5498 36.7357 30.881 32.7083 30.881Z" fill="#FFEB00"/>
<path fill-rule="evenodd" clip-rule="evenodd" d="M13.3536 19.5713C11.2466 19.5713 9.53857 20.9484 9.53857 22.6468C9.53857 23.6658 10.155 24.5682 11.1026 25.1277L10.6534 26.8394C10.6105 27.0037 10.7902 27.1341 10.9281 27.0394L12.8764 25.697C13.033 25.713 13.1919 25.722 13.3536 25.722C15.4606 25.722 17.1686 24.3451 17.1686 22.6468C17.1686 20.9484 15.4606 19.5713 13.3536 19.5713ZM20.5477 21.0427V24.4068C20.6287 24.4172 20.83 24.4377 21.0216 24.4377C22.07 24.4377 22.4736 23.6868 22.4736 22.5037C22.4736 21.4646 22.2011 20.837 21.3644 20.837C21.0921 20.837 20.7897 20.9189 20.5477 21.0427ZM20.5477 25.4561V27.5489H19.0761V19.7875H20.1144L20.2957 20.2813C20.6084 19.9622 21.082 19.623 21.8485 19.623C23.2905 19.623 23.9756 20.7237 23.9658 22.5037C23.9658 24.3656 22.9072 25.5591 21.3945 25.5591C21.1023 25.5591 20.8809 25.5382 20.5477 25.4561ZM27.7766 23.9608V22.9322H27.1011C26.3449 22.9322 25.9615 23.2101 25.9615 23.7656C25.9615 24.187 26.1734 24.3932 26.6069 24.3932C27.0101 24.3932 27.5244 24.187 27.7766 23.9608ZM26.9394 21.9751H27.7766V21.7903C27.7766 21.1727 27.4336 20.8846 26.8386 20.8846C26.3852 20.8846 25.8003 21.0187 25.3266 21.2553L24.9232 20.247C25.4477 19.8768 26.2541 19.6194 26.9695 19.6194C28.3814 19.6194 29.1479 20.3806 29.1479 21.8313V25.4015H28.1091L27.9577 24.928C27.3631 25.3703 26.8188 25.5556 26.3243 25.5556C25.2459 25.5556 24.6408 24.8972 24.6408 23.7861C24.6408 22.6027 25.4477 21.9751 26.9394 21.9751ZM33.5392 24.9213C33.025 26.3206 32.4099 27.3387 31.5125 27.9046L30.6058 27.0506C31.1296 26.5877 31.5027 26.1351 31.8252 25.5282L29.8694 20.0858L31.3314 19.6846L32.5814 24.0982L33.8216 19.6639L35.2636 20.0758L33.5392 24.9213Z" fill="#1E1F1F"/>
</g>
<defs>
<filter id="filter0_d_2759_56572" x="0" y="0" width="48" height="48" filterUnits="userSpaceOnUse" color-interpolation-filters="sRGB">
<feFlood flood-opacity="0" result="BackgroundImageFix"/>
<feColorMatrix in="SourceAlpha" type="matrix" values="0 0 0 0 0 0 0 0 0 0 0 0 0 0 0 0 0 0 127 0" result="hardAlpha"/>
<feOffset dx="1" dy="1"/>
<feGaussianBlur stdDeviation="2"/>
<feComposite in2="hardAlpha" operator="out"/>
<feColorMatrix type="matrix" values="0 0 0 0 0 0 0 0 0 0 0 0 0 0 0 0 0 0 0.15 0"/>
<feBlend mode="normal" in2="BackgroundImageFix" result="effect1_dropShadow_2759_56572"/>
<feBlend mode="normal" in="SourceGraphic" in2="effect1_dropShadow_2759_56572" result="shape"/>
</filter>
<clipPath id="clip0_2759_56572">
<rect width="35" height="15" fill="white" transform="translate(5 16)"/>
</clipPath>
</defs>
</svg>
