<svg width="48" height="48" viewBox="0 0 48 48" fill="none" xmlns="http://www.w3.org/2000/svg">
<g filter="url(#filter0_d_2759_56563)">
<circle cx="23" cy="23" r="20" fill="#00DE5A"/>
</g>
<path d="M18 23C18 23.9889 17.7068 24.9556 17.1574 25.7779C16.608 26.6001 15.827 27.241 14.9134 27.6194C13.9998 27.9978 12.9945 28.0969 12.0246 27.9039C11.0546 27.711 10.1637 27.2348 9.46447 26.5355C8.7652 25.8363 8.289 24.9454 8.09608 23.9755C7.90315 23.0055 8.00216 22.0002 8.3806 21.0866C8.75904 20.1729 9.3999 19.3921 10.2222 18.8426C11.0444 18.2932 12.0111 18 13 18C14.3261 18 15.5979 18.5268 16.5355 19.4645C17.4732 20.4021 18 21.6739 18 23ZM13.8363 20.65V23.1637L12.0863 20.65H10.65V25.3563H12.1625V22.835L13.9125 25.35H15.3538V20.65H13.8363Z" fill="#1E1F1F"/>
<path d="M35.9238 20.3722L34.5417 23.5215L32.9783 20.3722H31.7762L33.9904 24.7414L33.0776 26.7887H34.2449L37.0911 20.3784L35.9238 20.3722ZM31.008 25.2421H29.8655V24.7874C29.4499 25.1516 28.9142 25.3491 28.3617 25.3415C26.9957 25.3415 25.9265 24.2234 25.9265 22.8071C25.9265 21.3909 26.9945 20.2728 28.3617 20.2728C28.914 20.2649 29.4498 20.4618 29.8655 20.8256V20.3722H31.008V25.2421ZM29.9996 22.8133C29.9996 21.8953 29.3589 21.1983 28.5095 21.1983C27.6601 21.1983 27.0193 21.8953 27.0193 22.8133C27.0193 23.7314 27.6589 24.4283 28.5095 24.4283C29.3601 24.4283 29.9996 23.7252 29.9996 22.8133ZM20.2767 26.7887H21.4688V24.8284C21.8767 25.1677 22.3925 25.3497 22.9229 25.3415C24.2889 25.3415 25.3594 24.2234 25.3594 22.8071C25.3594 21.3909 24.2902 20.2728 22.9229 20.2728C22.3692 20.2629 21.8316 20.46 21.4154 20.8256V20.3722H20.2729L20.2767 26.7887ZM22.7814 21.1983C23.6308 21.1983 24.2715 21.8953 24.2715 22.8133C24.2715 23.7314 23.6308 24.4283 22.7814 24.4283C21.932 24.4283 21.2912 23.7314 21.2912 22.8133C21.2912 21.8953 21.9245 21.1983 22.7814 21.1983Z" fill="#1E1F1F"/>
<defs>
<filter id="filter0_d_2759_56563" x="0" y="0" width="48" height="48" filterUnits="userSpaceOnUse" color-interpolation-filters="sRGB">
<feFlood flood-opacity="0" result="BackgroundImageFix"/>
<feColorMatrix in="SourceAlpha" type="matrix" values="0 0 0 0 0 0 0 0 0 0 0 0 0 0 0 0 0 0 127 0" result="hardAlpha"/>
<feOffset dx="1" dy="1"/>
<feGaussianBlur stdDeviation="2"/>
<feComposite in2="hardAlpha" operator="out"/>
<feColorMatrix type="matrix" values="0 0 0 0 0 0 0 0 0 0 0 0 0 0 0 0 0 0 0.15 0"/>
<feBlend mode="normal" in2="BackgroundImageFix" result="effect1_dropShadow_2759_56563"/>
<feBlend mode="normal" in="SourceGraphic" in2="effect1_dropShadow_2759_56563" result="shape"/>
</filter>
</defs>
</svg>
